<?xml version="1.0" encoding="UTF-8" standalone="no"?>
<svg width="100%" height="100%" viewBox="0 0 10 10" version="1.1" xmlns="http://www.w3.org/2000/svg"
   style="fill-rule:evenodd;clip-rule:evenodd;stroke-linejoin:round;stroke-miterlimit:2;"><circle cx="3.703" cy="8.264" r="0.625" style="fill:#698983;"/><circle cx="7.5" cy="8.264" r="0.625" style="fill:#698983;"/><path d="M9.189,1.492c-0.052,-0.065 -0.131,-0.103 -0.214,-0.103l-5.783,-0l0.18,0.555l5.239,0l-0.742,3.334l-4.166,-0l-1.27,-4.02c-0.028,-0.086 -0.096,-0.154 -0.183,-0.18l-1.139,-0.35c-0.026,-0.008 -0.054,-0.013 -0.082,-0.013c-0.153,0 -0.279,0.126 -0.279,0.279c0,0.123 0.08,0.231 0.197,0.267l0.997,0.306l1.275,4.027l-0.455,0.373l-0.036,0.036c-0.232,0.267 -0.241,0.664 -0.022,0.941c0.153,0.187 0.386,0.29 0.627,0.278l4.636,0c0.153,0 0.278,-0.125 0.278,-0.278c0,-0.152 -0.125,-0.277 -0.278,-0.277l-4.68,-0c-0.1,-0.004 -0.18,-0.087 -0.18,-0.186c0,-0.033 0.008,-0.064 0.024,-0.092l0.67,-0.556l4.289,0c0.132,0.004 0.248,-0.088 0.277,-0.216l0.881,-3.889c0.017,-0.084 -0.005,-0.171 -0.061,-0.236Z" style="fill:#698983;fill-rule:nonzero;"/><rect x="0" y="0" width="10" height="10" style="fill:#698983;fill-opacity:0;"/></svg>