<?xml version="1.0" encoding="UTF-8" standalone="no"?>
<svg width="100%" height="100%" viewBox="0 0 10 10" version="1.1" 
xmlns="http://www.w3.org/2000/svg" style="fill-rule:evenodd;clip-rule:evenodd;stroke-linejoin:round;stroke-miterlimit:2;"><g id="surface1"><path d="M2.912,6.438c0.501,0.289 1.07,0.443 1.646,0.443c0.581,-0 1.154,-0.154 1.658,-0.444c0.504,-0.29 0.924,-0.708 1.213,-1.209c0.289,-0.501 0.442,-1.073 0.441,-1.655c-0.002,-1.178 -0.635,-2.275 -1.652,-2.862c-1.005,-0.581 -2.297,-0.577 -3.301,-0c-0.001,0 -0.002,0 -0.003,0.001c-0.504,0.29 -0.923,0.708 -1.213,1.209c-0.289,0.501 -0.441,1.073 -0.44,1.655c0.001,1.179 0.634,2.275 1.651,2.862Zm0.213,-0.369c-0.334,-0.193 -0.474,-0.754 -0.348,-1.494l1.816,1.048c-0.398,0.333 -0.801,0.528 -1.142,0.528c-0.123,-0 -0.233,-0.028 -0.326,-0.082Zm2.485,-1.645c-0.211,0.338 -0.447,0.64 -0.692,0.894l-1.01,-0.583l-1.031,-0.595c0.094,-0.329 0.236,-0.682 0.43,-1.045l2.303,1.329Zm-2.089,-1.699c0.211,-0.338 0.446,-0.64 0.691,-0.894l0.746,0.431l1.294,0.746c-0.098,0.343 -0.243,0.697 -0.429,1.046l-2.302,-1.329Zm1.037,3.729c-0.145,0 -0.29,-0.012 -0.433,-0.034c0.284,-0.124 0.575,-0.319 0.857,-0.572l0.675,0.389c-0.348,0.143 -0.722,0.217 -1.099,0.217Zm1.549,-0.449l-0.809,-0.468c0.242,-0.261 0.473,-0.564 0.682,-0.9l0.966,0.559c-0.22,0.322 -0.506,0.598 -0.839,0.809Zm0.703,-4.231c0.323,0.404 0.535,0.893 0.606,1.414l-0.674,-0.389c0.04,-0.192 0.066,-0.379 0.077,-0.559c0.01,-0.166 0.007,-0.321 -0.009,-0.466Zm0.63,1.921c-0.015,0.393 -0.112,0.779 -0.281,1.131l-0.966,-0.558c0.185,-0.345 0.332,-0.697 0.438,-1.041l0.809,0.468Zm-1.435,-2.615c0.28,0.162 0.421,0.575 0.388,1.134c-0.007,0.117 -0.021,0.236 -0.042,0.359l-1.813,-1.047c0.397,-0.333 0.799,-0.527 1.141,-0.527c0.123,-0 0.232,0.027 0.326,0.081Zm-1.007,-0.348c-0.281,0.125 -0.57,0.318 -0.85,0.569l-0.674,-0.389c0.48,-0.197 1.011,-0.256 1.524,-0.18Zm-1.975,0.413l0.81,0.467c-0.243,0.262 -0.474,0.564 -0.682,0.899l-0.966,-0.558c0.22,-0.322 0.506,-0.598 0.838,-0.808Zm-1.052,1.178l0.966,0.558c-0.188,0.351 -0.334,0.702 -0.438,1.04l-0.809,-0.467c0.016,-0.393 0.112,-0.779 0.281,-1.131Zm0.417,2.027c-0.078,0.373 -0.1,0.721 -0.066,1.028c-0.324,-0.405 -0.537,-0.895 -0.608,-1.417l0.674,0.389Z" style="fill:#678983;fill-rule:nonzero;"/><path d="M6.631,-0.004l-0.213,0.37c2.519,1.541 1.99,4.122 1.356,5.061c-0.626,0.928 -2.175,2.707 -5.062,1.356l-0.213,0.37c0.421,0.243 0.873,0.407 1.337,0.49l0,0.675c-0.666,0.05 -2.038,0.226 -2.038,0.827c-0,0.671 1.74,0.851 2.767,0.851c1.028,0 2.768,-0.18 2.768,-0.851c-0,-0.601 -1.373,-0.777 -2.039,-0.827l0,-0.677c0.114,-0.02 1.748,-0.204 2.849,-2.001c0.531,-0.866 1.387,-3.825 -1.512,-5.644Zm0.268,9.149c-0.122,0.16 -0.96,0.424 -2.334,0.424c-1.374,0 -2.212,-0.264 -2.333,-0.424c0.097,-0.124 0.694,-0.355 1.828,-0.413c0.114,-0.006 0.203,-0.099 0.203,-0.213l-0,-0.822c0.099,0.007 0.197,0.011 0.296,0.011c0.102,0 0.205,-0.005 0.309,-0.012l-0,0.823c-0,0.114 0.088,0.207 0.202,0.213c1.135,0.058 1.731,0.289 1.829,0.413Z" style="fill:#678983;fill-rule:nonzero;"/></g></svg>