<?xml version="1.0" encoding="UTF-8" standalone="no"?>
<svg width="100%" height="100%" viewBox="0 0 24 24" version="1.1" xmlns="http://www.w3.org/2000/svg"
 style="fill-rule:evenodd;clip-rule:evenodd;stroke-linejoin:round;stroke-miterlimit:2;"><g><path d="M1,5.5l22,-0c0.414,-0 1,-0.56 1,-1.25c-0,-0.69 -0.586,-1.25 -1,-1.25c0,-0 -21.978,-0 -21.993,-0c-0,-0 -0,-0 -0,-0c-0.414,-0 -1.007,0.56 -1.007,1.25c-0,0.69 0.586,1.25 1,1.25Z" style="fill:#314e52;fill-rule:nonzero;"/><path d="M23,10.75l-22,-0c-0.414,-0 -1,0.56 -1,1.25c-0,0.69 0.586,1.25 1,1.25l22,-0c0.414,-0 1,-0.56 1,-1.25c-0,-0.69 -0.586,-1.25 -1,-1.25Z" style="fill:#314e52;fill-rule:nonzero;"/><path d="M23,18.5l-22,-0c-0.414,-0 -1,0.56 -1,1.25c-0,0.69 0.586,1.25 1,1.25l22,-0c0.414,-0 1,-0.56 1,-1.25c-0,-0.69 -0.586,-1.25 -1,-1.25Z" style="fill:#314e52;fill-rule:nonzero;"/></g></svg>