<?xml version="1.0" encoding="UTF-8" standalone="no"?>
<svg width="100%" height="100%" viewBox="0 0 10 10" version="1.1" 
xmlns="http://www.w3.org/2000/svg" 
style="fill-rule:evenodd;clip-rule:evenodd;stroke-linejoin:round;stroke-miterlimit:2;"><g><g id="svg_1"><path d="M1.65,2.819c-0.01,0.002 -0.02,0.005 -0.029,0.01c-0.003,0.001 -0.006,0.002 -0.01,0.004c-0.011,0.005 -0.022,0.011 -0.033,0.019c-0.003,0.002 -0.006,0.005 -0.008,0.007c-0.009,0.005 -0.016,0.012 -0.022,0.019l-0.009,0.01c-0.007,0.007 -0.013,0.015 -0.018,0.022c-0.002,0.003 -0.004,0.006 -0.006,0.009c-0.007,0.011 -0.013,0.023 -0.018,0.035l-0,0.001l-0.001,0.001l-0,0.003l-0.001,0l-0,0.004l-0.001,0.003c-0,0.006 -0,0.011 0.002,0.015c0.001,0.004 0.003,0.008 0.005,0.012c0.007,0.011 0.02,0.018 0.032,0.019l0.002,0l0,0.001c-0.013,0 -0.027,-0.007 -0.034,-0.018c-0.006,-0.009 -0.008,-0.018 -0.007,-0.029l-0,-0.002l0.001,-0.001l-0,-0.003l0.001,-0.002l-0,-0.002l0.001,-0l-1.467,3.704c-0.01,0.028 -0.015,0.056 -0.015,0.085c-0,0.489 0.261,0.825 0.605,1.039c0.339,0.21 0.761,0.301 1.086,0.301c0.326,-0 0.747,-0.091 1.087,-0.301c0.344,-0.214 0.605,-0.55 0.605,-1.039c-0,-0.029 -0.006,-0.057 -0.016,-0.085l-1.369,-3.458l2.767,-0.621l-0,6.16l-0.874,0c-0.124,0 -0.226,0.103 -0.226,0.228c-0,0.125 0.102,0.227 0.226,0.227l2.199,0c0.124,0 0.226,-0.102 0.226,-0.227c-0,-0.125 -0.102,-0.228 -0.226,-0.228l-0.874,0l-0,-6.261l2.706,-0.608l-1.308,3.307c-0.011,0.026 -0.016,0.055 -0.016,0.083c-0,0.489 0.261,0.825 0.605,1.039c0.34,0.211 0.761,0.301 1.086,0.301c0.326,-0 0.747,-0.09 1.087,-0.301c0.344,-0.214 0.605,-0.55 0.605,-1.039c-0,-0.028 -0.005,-0.057 -0.016,-0.083l-1.466,-3.707c-0.001,-0.002 -0.002,-0.005 -0.002,-0.006c-0.002,-0.003 -0.005,-0.008 -0.006,-0.011c-0.004,-0.008 -0.009,-0.016 -0.014,-0.024l-0.007,-0.011c-0.007,-0.009 -0.013,-0.016 -0.02,-0.023c-0.002,-0.003 -0.004,-0.005 -0.006,-0.007c-0.01,-0.009 -0.02,-0.017 -0.031,-0.024c-0.003,-0.003 -0.006,-0.004 -0.01,-0.006c-0.007,-0.005 -0.016,-0.009 -0.024,-0.012l-0.014,-0.005c-0.008,-0.004 -0.017,-0.007 -0.027,-0.009c-0.003,-0.001 -0.007,-0.002 -0.011,-0.002c-0.013,-0.002 -0.025,-0.003 -0.038,-0.003l-0.005,0l0.001,0l-0.006,0c-0.01,0.001 -0.021,0.002 -0.031,0.004c-0.002,0 -0.005,0 -0.008,0.001l-3.024,0.68l-0,-1.199c-0,-0.126 -0.102,-0.228 -0.225,-0.228c-0.124,0 -0.226,0.102 -0.226,0.228l-0,1.3l-3.123,0.701c-0.002,0.001 -0.005,0.002 -0.007,0.003Zm6.622,-1.402c0.002,-0 0.004,-0 0.005,-0.001c0.008,-0.001 0.014,-0.002 0.021,-0.002c0.002,-0 0.003,-0 0.005,-0.001l0.002,-0c0.008,-0 0.015,0.001 0.022,0.002c0.003,0.001 0.005,0.002 0.009,0.002l0.016,0.005c0.002,0.001 0.005,0.002 0.008,0.003l0.015,0.008c0.002,0.001 0.004,0.002 0.006,0.004c0.008,0.004 0.014,0.009 0.019,0.014c0.002,0.002 0.003,0.003 0.004,0.004c0.005,0.006 0.009,0.01 0.013,0.015c0.002,0.002 0.003,0.005 0.005,0.007l0.008,0.016c0.001,0.002 0.002,0.004 0.004,0.007l0.002,0.003l1.466,3.706c0.006,0.018 0.009,0.035 0.009,0.053c0,0.456 -0.244,0.769 -0.565,0.967c-0.325,0.203 -0.729,0.288 -1.042,0.288c-0.312,0 -0.715,-0.085 -1.041,-0.288c-0.321,-0.198 -0.566,-0.511 -0.566,-0.967c0,-0.018 0.003,-0.035 0.011,-0.053l1.337,-3.38c0.005,-0.015 0.002,-0.031 -0.007,-0.043c-0.011,-0.012 -0.026,-0.018 -0.042,-0.014l-2.816,0.633c-0.02,0.004 -0.034,0.021 -0.034,0.041l0,6.338c0,0.023 0.019,0.042 0.043,0.042l0.916,-0c0.078,-0 0.141,0.064 0.141,0.143c0,0.078 -0.063,0.143 -0.141,0.143l-2.199,-0c-0.078,-0 -0.142,-0.065 -0.142,-0.143c0,-0.079 0.064,-0.143 0.142,-0.143l0.917,-0c0.022,-0 0.041,-0.019 0.041,-0.042l0,-6.256c0,-0.012 -0.005,-0.025 -0.015,-0.032c-0.011,-0.009 -0.023,-0.012 -0.036,-0.009l-2.865,0.644c-0.013,0.002 -0.023,0.011 -0.028,0.021c-0.007,0.012 -0.008,0.024 -0.002,0.036l1.386,3.504c0.006,0.016 0.009,0.035 0.009,0.053c0,0.456 -0.244,0.768 -0.565,0.967c-0.325,0.202 -0.729,0.288 -1.042,0.288c-0.312,0 -0.715,-0.086 -1.041,-0.288c-0.321,-0.199 -0.566,-0.511 -0.566,-0.967c0,-0.018 0.003,-0.037 0.011,-0.053l1.465,-3.706c-0.006,0.017 -0.022,0.027 -0.04,0.027l0.002,-0.001c0.017,-0.001 0.032,-0.01 0.038,-0.026l-0,-0.001c0.003,-0.007 0.007,-0.014 0.011,-0.021l0,-0.001c0.001,-0.002 0.004,-0.004 0.005,-0.005l0.011,-0.015c0.001,-0.002 0.003,-0.004 0.005,-0.006l0.014,-0.011c0.002,-0.002 0.003,-0.003 0.005,-0.005c0.006,-0.005 0.014,-0.009 0.021,-0.012l0.001,-0c0.001,-0.001 0.003,-0.001 0.005,-0.002l0.019,-0.006c0.002,-0.001 0.004,-0.001 0.005,-0.002l3.155,-0.709c0.019,-0.004 0.032,-0.022 0.032,-0.042l0,-1.333c0,-0.079 0.064,-0.143 0.142,-0.143c0.077,-0 0.14,0.064 0.14,0.143l0,1.252c0,0.012 0.007,0.024 0.016,0.032c0.01,0.009 0.023,0.012 0.035,0.009l3.075,-0.691Zm-6.566,6.297c0.168,0 0.49,-0.042 0.772,-0.178c0.29,-0.139 0.538,-0.374 0.553,-0.756c0,-0.005 -0.001,-0.011 -0.003,-0.016l-1.282,-3.241c-0.006,-0.017 -0.022,-0.028 -0.04,-0.028c-0.016,0 -0.032,0.011 -0.038,0.028l-1.283,3.241c-0.003,0.005 -0.004,0.011 -0.003,0.016c0.015,0.382 0.263,0.617 0.552,0.756c0.284,0.136 0.605,0.178 0.772,0.178Zm0,-0.084c-0.159,-0 -0.465,-0.041 -0.735,-0.17c-0.26,-0.124 -0.488,-0.333 -0.504,-0.673l1.239,-3.135l1.241,3.135c-0.018,0.34 -0.245,0.549 -0.505,0.673c-0.269,0.129 -0.575,0.17 -0.736,0.17Zm6.598,-1.399c0.168,0 0.49,-0.042 0.772,-0.177c0.29,-0.139 0.539,-0.375 0.553,-0.755c0,-0.007 -0.001,-0.013 -0.003,-0.018l-1.282,-3.241c-0.006,-0.017 -0.022,-0.027 -0.04,-0.027c-0.016,-0 -0.032,0.01 -0.038,0.027l-1.283,3.241c-0.002,0.005 -0.003,0.011 -0.002,0.018c0.014,0.38 0.262,0.616 0.552,0.755c0.283,0.135 0.604,0.177 0.771,0.177Zm0,-0.084c-0.159,-0 -0.465,-0.041 -0.735,-0.169c-0.26,-0.125 -0.487,-0.334 -0.504,-0.674l1.239,-3.135l1.241,3.135c-0.018,0.34 -0.245,0.549 -0.505,0.674c-0.27,0.128 -0.575,0.169 -0.736,0.169Zm-6.81,-3.174c0.001,0.003 0.001,0.005 0.002,0.008c0.006,0.019 0.029,0.028 0.037,0.031l0.002,0l0,0.001l0,-0.001l-0.001,-0.001c-0.006,-0.002 -0.037,-0.013 -0.04,-0.038Zm0.043,0.039l-0.002,0.001l0.002,-0.001Zm-0.002,0c-0.004,-0.009 -0.034,-0.069 -0.038,-0.058l-0,0.001c0.004,-0.008 0.032,0.046 0.037,0.056l0.001,0.001Z" style="fill:#698983;fill-rule:nonzero;"/><path d="M9.941,5.193l-1.466,-3.705c-0.001,-0.002 -0.002,-0.003 -0.002,-0.004c-0.002,-0.004 -0.003,-0.007 -0.005,-0.01c-0.003,-0.007 -0.007,-0.013 -0.011,-0.02c-0.002,-0.003 -0.004,-0.006 -0.007,-0.009c-0.004,-0.006 -0.009,-0.013 -0.015,-0.019c-0.003,-0.002 -0.004,-0.004 -0.006,-0.005c-0.007,-0.007 -0.015,-0.014 -0.025,-0.02c-0.002,-0.001 -0.005,-0.003 -0.007,-0.004c-0.006,-0.004 -0.013,-0.007 -0.021,-0.011c-0.003,-0.002 -0.006,-0.003 -0.01,-0.004c-0.006,-0.003 -0.014,-0.005 -0.021,-0.006c-0.004,-0.001 -0.007,-0.002 -0.01,-0.002c-0.01,-0.002 -0.02,-0.003 -0.031,-0.003l-0.001,-0c-0.002,-0 -0.005,-0 -0.007,0.001c-0.009,-0 -0.018,0.001 -0.027,0.003l-0.004,-0l-3.076,0.692l0,-1.252c0,-0.102 -0.083,-0.185 -0.183,-0.185c-0.101,-0 -0.183,0.083 -0.183,0.185l-0,1.333l-3.156,0.71c-0.002,-0 -0.003,0.001 -0.006,0.002c-0.008,0.002 -0.016,0.004 -0.025,0.007c-0.002,0.001 -0.004,0.002 -0.007,0.003c-0.009,0.006 -0.019,0.011 -0.027,0.017c-0.002,0.001 -0.004,0.003 -0.007,0.005c-0.006,0.004 -0.012,0.01 -0.018,0.016c-0.002,0.002 -0.005,0.005 -0.007,0.007c-0.005,0.006 -0.01,0.013 -0.014,0.019c-0.002,0.002 -0.004,0.005 -0.006,0.007c-0.005,0.01 -0.009,0.019 -0.014,0.028l-0.001,0.003l-1.465,3.704c-0.008,0.022 -0.014,0.046 -0.014,0.069c0,0.945 1.013,1.297 1.65,1.297c0.638,-0 1.65,-0.352 1.65,-1.297c0,-0.023 -0.004,-0.047 -0.014,-0.069l-1.386,-3.504l2.867,-0.644l-0,6.256l-0.917,-0c-0.101,-0 -0.183,0.083 -0.183,0.185c-0,0.102 0.082,0.185 0.183,0.185l2.199,0c0.101,0 0.183,-0.083 0.183,-0.185c-0,-0.102 -0.082,-0.185 -0.183,-0.185l-0.916,-0l0,-6.338l2.816,-0.633l-1.337,3.38c-0.008,0.022 -0.013,0.046 -0.013,0.069c-0,0.945 1.012,1.298 1.649,1.298c0.638,0 1.65,-0.353 1.65,-1.298c0,-0.023 -0.004,-0.047 -0.013,-0.069Zm-8.235,2.479c-0.328,-0 -1.254,-0.165 -1.282,-0.893l1.282,-3.242l1.282,3.242c-0.028,0.728 -0.954,0.893 -1.282,0.893Zm6.598,-1.483c-0.328,-0 -1.254,-0.165 -1.282,-0.892l1.282,-3.242l1.283,3.242c-0.029,0.727 -0.955,0.892 -1.283,0.892Z" style="fill:#698983;fill-rule:nonzero;"/></g></g></svg>